#!OML:ASF X:\für Bonn\!DataBase\2005_08_10_Bjorn_Final\c3d\bjorn.ASF
:FULLY-SPECIFIED
:DEGREES
246
root 15.8564 17.8219 1.20343 171.815 -106.497 -136.016
lowerback 73.6577 -2.52993 10.8894
upperback 15.6877 1.50144 -2.57588
thorax -2.57887 0.949495 -7.81685
lowerneck 3.80423 -8.92937 10.0396
upperneck -16.7363 -10.5537 5.24145
head -6.01499 -6.28512 0.7633
rclavicle -5.08889e-014 4.77083e-015
rhumerus 59.8282 -0.224783 -4.20727
rradius 22.2805
rwrist 2.40694
rhand -39.5234 34.2475
rfingers 7.12502
rthumb -12.5083 4.64189
lclavicle -5.08889e-014 4.77083e-015
lhumerus -16.5989 -31.7605 86.4779
lradius 55.2684
lwrist 2.68845
lhand -32.2083 -15.4563
lfingers 7.12502
lthumb -5.44985 14.4536
rfemur -69.6649 -8.01756 0.0684606
rtibia 59.818
rfoot -19.4793 -3.6114
rtoes -12.0441
lfemur -69.7516 -0.320898 -31.4956
ltibia 56.0154
lfoot -12.4827 3.48106
ltoes -22.7282
247
root 15.869 17.8269 1.19268 172 -106.484 -136.203
lowerback 73.2801 -2.48994 10.8904
upperback 15.7868 1.4902 -2.60426
thorax -2.50273 0.952059 -7.85405
lowerneck 4.07126 -8.97492 10.1701
upperneck -16.8998 -10.5576 5.24507
head -6.12185 -6.30315 0.766599
rclavicle -3.18055e-015 7.95139e-015
rhumerus 59.7197 -0.400332 -5.95793
rradius 22.348
rwrist 2.88289
rhand -39.8365 34.0005
rfingers 7.12502
rthumb -12.8102 4.41351
lclavicle -3.18055e-015 7.95139e-015
lhumerus -16.5865 -31.8823 86.4741
lradius 55.222
lwrist 2.72567
lhand -31.8494 -15.3578
lfingers 7.12502
lthumb -5.10334 14.5608
rfemur -69.6981 -8.05053 0.192425
rtibia 59.7399
rfoot -19.3996 -3.53796
rtoes -11.8383
lfemur -69.7441 -0.260741 -31.4547
ltibia 55.8892
lfoot -12.4647 3.44706
ltoes -22.6218
248
root 15.8813 17.8315 1.18226 172.218 -106.444 -136.413
lowerback 72.8383 -2.43122 10.8933
upperback 15.9265 1.48428 -2.63976
thorax -2.38401 0.961102 -7.90355
lowerneck 4.37433 -9.01744 10.3497
upperneck -17.1246 -10.5463 5.23554
head -6.25857 -6.31941 0.762119
rclavicle 1.59028e-014 -2.8625e-014
rhumerus 59.5906 -0.609475 -7.77325
rradius 22.4749
rwrist 3.41002
rhand -40.1092 33.5517
rfingers 7.12502
rthumb -13.0731 3.98141
lclavicle 1.59028e-014 -2.8625e-014
lhumerus -16.4947 -32.0028 86.4294
lradius 55.163
lwrist 2.82267
lhand -31.4201 -15.3602
lfingers 7.12502
lthumb -4.68881 14.5679
rfemur -69.7508 -8.06507 0.331438
rtibia 59.6606
rfoot -19.3014 -3.46509
rtoes -11.6623
lfemur -69.7495 -0.152417 -31.4265
ltibia 55.7563
lfoot -12.4239 3.39093
ltoes -22.4955
249
root 15.8937 17.8375 1.17256 172.441 -106.403 -136.64
lowerback 72.3718 -2.36047 10.892
upperback 16.0864 1.48525 -2.65011
thorax -2.24227 0.970707 -7.9251
lowerneck 4.47474 -9.06633 10.4581
upperneck -17.2582 -10.5816 5.24901
head -6.32656 -6.35211 0.764533
rclavicle -2.22639e-014 -1.90833e-014
rhumerus 59.4538 -0.834089 -9.59436
rradius 22.6451
rwrist 3.97217
rhand -40.2522 32.8556
rfingers 7.12502
rthumb -13.2109 3.29418
lclavicle -2.22639e-014 -1.90833e-014
lhumerus -16.3255 -32.1447 86.3887
lradius 55.0554
lwrist 2.92448
lhand -30.9946 -15.2431
lfingers 7.12502
lthumb -4.27795 14.6937
rfemur -69.7822 -8.08742 0.484283
rtibia 59.5591
rfoot -19.205 -3.38
rtoes -11.4685
lfemur -69.7347 -0.0595564 -31.3714
ltibia 55.6136
lfoot -12.3709 3.33374
ltoes -22.3959
250
root 15.9062 17.8445 1.16234 172.63 -106.354 -136.827
lowerback 71.8605 -2.26398 10.832
upperback 16.2682 1.46877 -2.64663
thorax -2.08526 0.968142 -7.90161
lowerneck 4.61361 -9.08116 10.5005
upperneck -17.4112 -10.5691 5.27815
head -6.40108 -6.36002 0.780016
rclavicle 1.59028e-014 1.43125e-014
rhumerus 59.3993 -1.07696 -11.5139
rradius 22.8295
rwrist 4.51516
rhand -40.3487 32.2139
rfingers 7.12502
rthumb -13.3039 2.65855
lclavicle 1.59028e-014 1.43125e-014
lhumerus -16.1029 -32.1528 86.3506
lradius 54.8973
lwrist 2.98733
lhand -30.5534 -15.222
lfingers 7.12502
lthumb -3.85187 14.7229
rfemur -69.8223 -8.1016 0.635559
rtibia 59.4539
rfoot -19.0813 -3.35794
rtoes -11.5123
lfemur -69.7277 0.0676119 -31.3561
ltibia 55.4675
lfoot -12.3067 3.26394
ltoes -22.3925
251
root 15.9193 17.8516 1.15333 172.841 -106.302 -137.052
lowerback 71.3428 -2.18088 10.8054
upperback 16.4422 1.46078 -2.65254
thorax -1.93196 0.971651 -7.9055
lowerneck 4.6325 -9.10083 10.5632
upperneck -17.4916 -10.5846 5.28807
head -6.43457 -6.37763 0.779867
rclavicle -6.67916e-014 5.08889e-014
rhumerus 59.2439 -1.19385 -13.2058
rradius 23.1051
rwrist 4.77035
rhand -40.4312 31.4394
rfingers 7.12502
rthumb -13.3834 1.88922
lclavicle -6.67916e-014 5.08889e-014
lhumerus -15.8655 -32.2152 86.304
lradius 54.7088
lwrist 3.08782
lhand -30.1129 -15.1983
lfingers 7.12502
lthumb -3.42649 14.7539
rfemur -69.8396 -8.12229 0.79578
rtibia 59.3321
rfoot -18.9699 -3.26428
rtoes -11.3165
lfemur -69.696 0.2045 -31.3295
ltibia 55.3128
lfoot -12.2398 3.16428
ltoes -22.1482
252
root 15.9322 17.8583 1.14336 172.99 -106.238 -137.196
lowerback 70.765 -2.07045 10.7441
upperback 16.6487 1.44868 -2.66163
thorax -1.7479 0.974377 -7.89898
lowerneck 4.38436 -9.08849 10.5611
upperneck -17.4208 -10.6029 5.33661
head -6.3668 -6.388 0.780861
rclavicle 3.18055e-015 -4.13472e-014
rhumerus 59.0941 -1.34395 -15.0085
rradius 23.4047
rwrist 5.05649
rhand -40.3899 30.5349
rfingers 7.12502
rthumb -13.3436 0.982189
lclavicle 3.18055e-015 -4.13472e-014
lhumerus -15.5357 -32.2462 86.2004
lradius 54.4803
lwrist 3.29822
lhand -29.624 -15.2759
lfingers 7.12502
lthumb -2.95438 14.6834
rfemur -69.8733 -8.12665 0.933781
rtibia 59.2049
rfoot -18.8559 -3.17759
rtoes -11.1994
lfemur -69.6881 0.383517 -31.3504
ltibia 55.1566
lfoot -12.1624 3.02466
ltoes -21.9333
253
root 15.9456 17.8662 1.13305 173.308 -106.182 -137.53
lowerback 70.1785 -1.96549 10.7023
upperback 16.8349 1.45177 -2.63681
thorax -1.58157 0.977121 -7.86687
lowerneck 4.17188 -9.07437 10.5152
upperneck -17.313 -10.6237 5.3593
head -6.2916 -6.39241 0.780555
rclavicle -3.18055e-014 5.88403e-014
rhumerus 58.8799 -1.30062 -16.4341
rradius 23.8224
rwrist 4.8899
rhand -40.2724 29.5713
rfingers 7.12502
rthumb -13.2304 0.0111522
lclavicle -3.18055e-014 5.88403e-014
lhumerus -15.261 -32.2013 86.1586
lradius 54.2483
lwrist 3.43266
lhand -29.1636 -15.2791
lfingers 7.12502
lthumb -2.5097 14.6859
rfemur -69.8799 -8.12034 1.11796
rtibia 59.0638
rfoot -18.7451 -3.13327
rtoes -11.0488
lfemur -69.6613 0.5676 -31.3246
ltibia 54.9872
lfoot -12.0911 2.86956
ltoes -21.7788
254
root 15.9595 17.8759 1.12356 173.535 -106.12 -137.773
lowerback 69.5522 -1.8422 10.6201
upperback 17.0508 1.44159 -2.60812
thorax -1.38658 0.973193 -7.80979
lowerneck 3.90538 -9.03568 10.4904
upperneck -17.198 -10.6199 5.36851
head -6.20646 -6.38506 0.767985
rclavicle 9.54166e-014 6.36111e-015
rhumerus 58.6501 -1.18256 -17.7042
rradius 24.3046
rwrist 4.528
rhand -40.2309 28.5281
rfingers 7.12502
rthumb -13.1904 -1.03467
lclavicle 9.54166e-014 6.36111e-015
lhumerus -14.8989 -32.1126 86.0794
lradius 53.9627
lwrist 3.51425
lhand -28.7798 -15.275
lfingers 7.12502
lthumb -2.13908 14.694
rfemur -69.8842 -8.11103 1.27151
rtibia 58.9097
rfoot -18.608 -3.06571
rtoes -10.8486
lfemur -69.6248 0.749946 -31.3235
ltibia 54.8074
lfoot -11.9956 2.73469
ltoes -21.7561
